<svg xmlns="http://www.w3.org/2000/svg" xml:space="preserve" width="1500" height="1500" fill="#fff" stroke="#fff" data-id="lg_zvvn9CKCHNmVEUCw4E" data-version="1" viewBox="0 0 1500 1500"><path fill="#000" stroke="transparent" d="M0 0h1500v1500H0z"/><g data-padding="20"><g transform="translate(-576.165 -585.768)scale(1.72788)"><rect width="587.076" height="272.33" x="92.809" y="256.032" fill="none" rx="0" ry="0" transform="matrix(.95 0 0 .95 400.48 400.48)"/><path d="m504.198 837.268 26.096-160.265h34.114l26.106 160.265H565.33l-4.579-31.825v.465h-28.624l-4.579 31.36Zm30.912-53.114h22.658l-11.21-79.221h-.465Zm67.536 53.114V677.003h25.185v67.545l32.052-67.545h25.185l-29.99 58.843 30.446 101.422H659.2l-21.3-71.43-10.07 20.377v51.053Zm125.933 2.289q-18.317 0-27.703-10.412-9.386-10.421-9.386-29.877v-9.158h23.807v10.982q0 15.57 13.053 15.57 6.413 0 9.728-3.771 3.325-3.781 3.325-12.255 0-10.07-4.579-17.746-4.579-7.666-16.948-18.43-15.57-13.737-21.745-24.833-6.184-11.106-6.184-25.07 0-19.01 9.613-29.422 9.614-10.421 27.93-10.421 18.088 0 27.36 10.42 9.272 10.413 9.272 29.878v6.64h-23.807v-8.245q0-8.236-3.2-12.017-3.212-3.781-9.397-3.781-12.587 0-12.587 15.342 0 8.702 4.693 16.255t17.062 18.315q15.79 13.737 21.745 24.957t5.957 26.324q0 19.694-9.738 30.23-9.728 10.525-28.272 10.525m52.421-2.29V677.004h25.184v65.256h27.018v-65.256h25.185v160.265h-25.184v-72.114h-27.018v72.114Zm89.518 0 26.097-160.264h34.114l26.107 160.265H931.65l-4.579-31.825v.465h-28.623l-4.58 31.36Zm30.904-53.114h22.667l-11.22-79.22h-.456Zm76.703 53.115v-137.37H951.79v-22.895h77.843v22.895h-26.324v137.37Z"/></g><path fill="transparent" stroke="transparent" stroke-width="1.792" d="M250 517.921h1000V982.08H250z"/></g></svg>